<svg xmlns="http://www.w3.org/2000/svg" viewBox="0 0 32 40" x="0px" y="0px"><title>UI</title><g data-name="Layer 2"><path d="M30,12H26.535l-5.7-8.555a1,1,0,0,0-1.664,1.11L24.132,12H7.868l4.964-7.445a1,1,0,1,0-1.664-1.11L5.465,12H2a1,1,0,0,0,0,2H3.02a.974.974,0,0,0,0,.209l3,14A1,1,0,0,0,7,29H25a1,1,0,0,0,.978-.791l3-14a.974.974,0,0,0,0-.209H30a1,1,0,0,0,0-2ZM24.191,27H7.809L5.022,14H26.978Z"/></g><text x="0" y="47" fill="#000000" font-size="5px" font-weight="bold" font-family="'Helvetica Neue', Helvetica, Arial-Unicode, Arial, Sans-serif">Created by Ilham Fitrotul Hayat</text><text x="0" y="52" fill="#000000" font-size="5px" font-weight="bold" font-family="'Helvetica Neue', Helvetica, Arial-Unicode, Arial, Sans-serif">from the Noun Project</text></svg>